<svg width="34" height="34" viewBox="0 0 34 34" fill="none" xmlns="http://www.w3.org/2000/svg">
<g clip-path="url(#clip0_1_491)">
<path d="M1.41504 11.5127C1.41504 10.6452 2.11832 9.94084 2.98578 9.94084H8.2654V8.7352C8.2654 3.91774 12.1854 0 17.0009 0C21.8171 0 25.7368 3.91774 25.7368 8.7352V9.9416H31.0144C31.8826 9.9416 32.5855 10.6459 32.5855 11.5133V17.4246H1.4157V11.5127H1.41504ZM11.4076 9.94084H22.5942V8.7352C22.5942 5.65027 20.0847 3.14125 17.0003 3.14125C13.9165 3.14125 11.407 5.64951 11.407 8.7352V9.94084H11.4076Z" fill="#2D527C"/>
<path d="M32.5848 32.4286C32.5848 33.2961 31.8819 34.0001 31.0138 34.0001H2.98458C2.11701 34.0001 1.4145 33.2961 1.4145 32.4286V20.871H32.5848V32.4286Z" fill="#1990A6"/>
</g>
<defs>
<clipPath id="clip0_1_491">
<rect width="34" height="34" fill="white" transform="matrix(-1 0 0 1 34 0)"/>
</clipPath>
</defs>
</svg>
