<svg width="62" height="61" viewBox="0 0 62 61" fill="none" xmlns="http://www.w3.org/2000/svg">
<circle cx="31.1973" cy="30.5" r="30" fill="white" fill-opacity="0.85" stroke="#5E9942"/>
<path d="M33.214 46.331H18.6125C17.17 46.331 16 45.1798 16 43.7606V16.5904C16 15.1712 17.17 14.02 18.6125 14.02H43.2154C44.6579 14.02 45.8279 15.1712 45.8279 16.5904V31.8864L44.8262 31.2636C44.6819 31.169 41.1398 29.048 38.0945 32.1545C35.0892 35.2216 37.7499 38.1783 37.8621 38.2966L38.5432 39.0377L37.5816 39.3452C37.4373 39.3926 34.0073 40.5752 33.2941 45.779L33.214 46.331ZM18.6125 15.3052C17.8913 15.3052 17.3063 15.8808 17.3063 16.5904V43.7606C17.3063 44.4702 17.8913 45.0458 18.6125 45.0458H32.084C32.8133 40.9537 35.1213 39.1639 36.3715 38.4779C35.2976 36.8537 34.5042 33.9522 37.1568 31.2557C39.8736 28.4882 42.9669 29.119 44.5216 29.7103V16.5904C44.5216 15.8808 43.9366 15.3052 43.2154 15.3052H18.6125Z" fill="#1990A6"/>
<path d="M38.8076 21.3052H23.2205C21.7539 21.3052 21.7459 23.5523 23.2205 23.5523H38.8076C40.2742 23.5602 40.2742 21.3052 38.8076 21.3052ZM32.4045 28.8981H23.3006C21.8341 28.8981 21.8261 31.1452 23.3006 31.1452H32.3965C33.871 31.1452 33.871 28.8981 32.4045 28.8981ZM29.5756 36.483H23.0522C21.5856 36.483 21.5776 38.7301 23.0522 38.7301H29.5756C31.0501 38.7301 31.0501 36.483 29.5756 36.483Z" fill="#5E5E5E"/>
<path d="M41.3139 39.8157C41.3139 39.8157 38.1965 38.7276 39.062 35.1086C39.11 34.9036 39.1982 34.7065 39.3184 34.533C39.9195 33.6578 42.0432 31.1742 45.5533 33.3976C45.6494 33.4607 45.7376 33.5238 45.8177 33.6026C46.3547 34.1072 48.0937 36.0547 46.2745 38.5305C46.2745 38.5305 45.8097 39.2795 44.6397 39.658C44.6397 39.658 43.9745 40.068 45.7216 40.3439C45.9299 40.3755 46.1303 40.4385 46.3146 40.541C47.1881 41.0141 49.6083 42.528 49.9449 45.0668L49.977 45.256C50.1292 46.1864 49.5122 47.0695 48.5745 47.2587C47.1961 47.5347 45.1446 47.8264 43.0369 47.7081C40.8891 47.5898 38.8055 47.3139 37.4351 47.1168C36.4174 46.967 35.7282 45.9972 35.9606 45.0116C36.185 44.0418 36.7379 42.8039 38.0121 41.6055C38.0442 41.5739 38.0843 41.5424 38.1243 41.5108C38.4208 41.2743 39.7271 40.2493 40.8731 39.997C41.0174 39.9497 41.1696 39.8945 41.3139 39.8157Z" fill="#5E5E5E"/>
</svg>
