<svg width="37" height="36" viewBox="0 0 37 36" fill="none" xmlns="http://www.w3.org/2000/svg">
<g clip-path="url(#clip0_1_498)">
<path d="M32.5618 31.856H4.8327C2.55239 31.856 0.697266 30.0009 0.697266 27.7206V8.27941C0.697266 5.99911 2.55239 4.14398 4.8327 4.14398H32.5618C34.8421 4.14398 36.6973 5.99911 36.6973 8.27941V15.9473C36.6973 16.5141 36.2376 16.9736 35.6709 16.9736C35.1042 16.9736 34.6446 16.5141 34.6446 15.9473V8.27941C34.6446 7.131 33.7103 6.19668 32.5618 6.19668H4.8327C3.68428 6.19668 2.74997 7.131 2.74997 8.27941V27.7206C2.74997 28.869 3.68428 29.8033 4.8327 29.8033H32.5618C33.7103 29.8033 34.6446 28.869 34.6446 27.7206V22.4648C34.6446 21.898 35.1042 21.4385 35.6709 21.4385C36.2376 21.4385 36.6973 21.898 36.6973 22.4648V27.7206C36.6973 30.0009 34.8421 31.856 32.5618 31.856Z" fill="#2D527C"/>
<path d="M16.3537 26.4161H6.09009V22.3965C6.09009 20.0819 7.96652 18.2056 10.2811 18.2056H12.1627C14.4774 18.2056 16.3537 20.082 16.3537 22.3965L16.3537 26.4161Z" fill="#CEE8FA"/>
<path d="M16.3537 27.4426H6.09007C5.52328 27.4426 5.06372 26.9831 5.06372 26.4162V22.3966C5.06372 19.5197 7.40421 17.1793 10.2811 17.1793H12.1628C15.0396 17.1793 17.3801 19.5198 17.3801 22.3966V26.4162C17.3801 26.983 16.9205 27.4426 16.3537 27.4426ZM7.11642 25.3898H15.3274V22.3966C15.3274 20.6516 13.9077 19.232 12.1628 19.232H10.2811C8.5361 19.232 7.11642 20.6516 7.11642 22.3966V25.3898Z" fill="#2D527C"/>
<path d="M11.2216 17.7952C13.489 17.7952 15.3271 15.9571 15.3271 13.6897C15.3271 11.4223 13.489 9.58423 11.2216 9.58423C8.95423 9.58423 7.11615 11.4223 7.11615 13.6897C7.11615 15.9571 8.95423 17.7952 11.2216 17.7952Z" fill="#CEE8FA"/>
<path d="M11.2219 18.8213C8.39226 18.8213 6.09009 16.5191 6.09009 13.6894C6.09009 10.8598 8.39226 8.55762 11.2219 8.55762C14.0516 8.55762 16.3537 10.8598 16.3537 13.6894C16.3537 16.5191 14.0516 18.8213 11.2219 18.8213ZM11.2219 10.6103C9.52408 10.6103 8.14279 11.9916 8.14279 13.6894C8.14279 15.3873 9.52408 16.7686 11.2219 16.7686C12.9198 16.7686 14.301 15.3873 14.301 13.6894C14.301 11.9916 12.9198 10.6103 11.2219 10.6103Z" fill="#2D527C"/>
<path d="M23.0935 16.3234H18.988C18.4212 16.3234 17.9617 15.8639 17.9617 15.297V11.1232C17.9617 10.5563 18.4213 10.0968 18.988 10.0968H23.0935C23.6603 10.0968 24.1199 10.5563 24.1199 11.1232V15.297C24.1199 15.8639 23.6603 16.3234 23.0935 16.3234ZM20.0144 14.2706H22.0671V12.1494H20.0144V14.2706Z" fill="#2D527C"/>
<path d="M27.199 16.3234H23.0935C22.5267 16.3234 22.0671 15.8639 22.0671 15.297V11.1232C22.0671 10.5563 22.5268 10.0968 23.0935 10.0968H27.199C27.7658 10.0968 28.2253 10.5563 28.2253 11.1232V15.297C28.2253 15.8639 27.7658 16.3234 27.199 16.3234ZM24.1198 14.2706H26.1725V12.1494H24.1198V14.2706Z" fill="#2D527C"/>
<path d="M31.3044 16.3234H27.199C26.6322 16.3234 26.1726 15.8639 26.1726 15.297V11.1232C26.1726 10.5563 26.6322 10.0968 27.199 10.0968H31.3044C31.8712 10.0968 32.3308 10.5563 32.3308 11.1232C32.3308 11.69 31.8712 12.1495 31.3044 12.1495H28.2253V14.2707H31.3044C31.8712 14.2707 32.3308 14.7302 32.3308 15.297C32.3308 15.8639 31.8712 16.3234 31.3044 16.3234Z" fill="#2D527C"/>
<path d="M29.6108 21.0791H20.6816C20.1148 21.0791 19.6552 20.6196 19.6552 20.0528C19.6552 19.4859 20.1148 19.0264 20.6816 19.0264H29.6108C30.1776 19.0264 30.6372 19.4859 30.6372 20.0528C30.6372 20.6196 30.1776 21.0791 29.6108 21.0791Z" fill="#2D527C"/>
<path d="M29.6108 26.211H20.6816C20.1148 26.211 19.6552 25.7515 19.6552 25.1846C19.6552 24.6178 20.1148 24.1583 20.6816 24.1583H29.6108C30.1776 24.1583 30.6372 24.6178 30.6372 25.1846C30.6372 25.7515 30.1776 26.211 29.6108 26.211Z" fill="#2D527C"/>
</g>
<defs>
<clipPath id="clip0_1_498">
<rect width="36" height="36" fill="white" transform="translate(0.697266)"/>
</clipPath>
</defs>
</svg>
